<mxfile host="app.diagrams.net" agent="Mozilla/5.0 (Windows NT 10.0; Win64; x64) AppleWebKit/537.36 (KHTML, like Gecko) Chrome/141.0.0.0 Safari/537.36" version="28.2.7">
  <diagram id="Q1oucQ8a3HV3E_MFM8Lu" name="Page-1">
    <mxGraphModel dx="1226" dy="660" grid="1" gridSize="10" guides="1" tooltips="1" connect="1" arrows="1" fold="1" page="1" pageScale="1" pageWidth="850" pageHeight="1100" math="0" shadow="0">
      <root>
        <mxCell id="0" />
        <mxCell id="1" parent="0" />
        <mxCell id="bOdLivFwJNpGWcZTf3N1-1" value="" style="rounded=0;whiteSpace=wrap;html=1;" parent="1" vertex="1">
          <mxGeometry x="60" y="50" width="170" height="360" as="geometry" />
        </mxCell>
        <mxCell id="bOdLivFwJNpGWcZTf3N1-3" value="" style="rounded=0;whiteSpace=wrap;html=1;fillColor=none;fontColor=#ffffff;strokeColor=#6D1F00;" parent="1" vertex="1">
          <mxGeometry x="320" y="50" width="190" height="420" as="geometry" />
        </mxCell>
        <mxCell id="bOdLivFwJNpGWcZTf3N1-4" value="" style="rounded=0;whiteSpace=wrap;html=1;fillColor=none;fontColor=#ffffff;strokeColor=#314354;" parent="1" vertex="1">
          <mxGeometry x="570" y="50" width="190" height="420" as="geometry" />
        </mxCell>
        <mxCell id="bOdLivFwJNpGWcZTf3N1-5" value="Sources" style="text;html=1;whiteSpace=wrap;strokeColor=none;fillColor=none;align=center;verticalAlign=middle;rounded=0;" parent="1" vertex="1">
          <mxGeometry x="115" y="20" width="60" height="30" as="geometry" />
        </mxCell>
        <mxCell id="bOdLivFwJNpGWcZTf3N1-6" value="BRONZE LAYER" style="text;html=1;whiteSpace=wrap;strokeColor=#6D1F00;fillColor=#a0522d;align=center;verticalAlign=middle;rounded=0;fontColor=#ffffff;" parent="1" vertex="1">
          <mxGeometry x="360" y="20" width="110" height="30" as="geometry" />
        </mxCell>
        <mxCell id="bOdLivFwJNpGWcZTf3N1-7" value="SILVER LAYER" style="text;html=1;whiteSpace=wrap;strokeColor=#314354;fillColor=#647687;align=center;verticalAlign=middle;rounded=0;fontColor=#ffffff;" parent="1" vertex="1">
          <mxGeometry x="610" y="20" width="100" height="30" as="geometry" />
        </mxCell>
        <mxCell id="bOdLivFwJNpGWcZTf3N1-22" style="edgeStyle=orthogonalEdgeStyle;rounded=0;orthogonalLoop=1;jettySize=auto;html=1;entryX=0;entryY=0.5;entryDx=0;entryDy=0;" parent="1" source="bOdLivFwJNpGWcZTf3N1-8" target="bOdLivFwJNpGWcZTf3N1-10" edge="1">
          <mxGeometry relative="1" as="geometry" />
        </mxCell>
        <mxCell id="bOdLivFwJNpGWcZTf3N1-23" style="edgeStyle=orthogonalEdgeStyle;rounded=0;orthogonalLoop=1;jettySize=auto;html=1;entryX=0;entryY=0.5;entryDx=0;entryDy=0;" parent="1" source="bOdLivFwJNpGWcZTf3N1-8" target="bOdLivFwJNpGWcZTf3N1-11" edge="1">
          <mxGeometry relative="1" as="geometry" />
        </mxCell>
        <mxCell id="bOdLivFwJNpGWcZTf3N1-24" style="edgeStyle=orthogonalEdgeStyle;rounded=0;orthogonalLoop=1;jettySize=auto;html=1;entryX=0;entryY=0.5;entryDx=0;entryDy=0;" parent="1" source="bOdLivFwJNpGWcZTf3N1-8" target="bOdLivFwJNpGWcZTf3N1-12" edge="1">
          <mxGeometry relative="1" as="geometry" />
        </mxCell>
        <mxCell id="bOdLivFwJNpGWcZTf3N1-8" value="CRM" style="image;aspect=fixed;html=1;points=[];align=center;fontSize=12;image=img/lib/azure2/general/File.svg;" parent="1" vertex="1">
          <mxGeometry x="119" y="110" width="56.00000000000001" height="69" as="geometry" />
        </mxCell>
        <mxCell id="bOdLivFwJNpGWcZTf3N1-25" style="edgeStyle=orthogonalEdgeStyle;rounded=0;orthogonalLoop=1;jettySize=auto;html=1;entryX=0;entryY=0.5;entryDx=0;entryDy=0;" parent="1" source="bOdLivFwJNpGWcZTf3N1-9" target="bOdLivFwJNpGWcZTf3N1-13" edge="1">
          <mxGeometry relative="1" as="geometry" />
        </mxCell>
        <mxCell id="bOdLivFwJNpGWcZTf3N1-26" style="edgeStyle=orthogonalEdgeStyle;rounded=0;orthogonalLoop=1;jettySize=auto;html=1;entryX=0;entryY=0.5;entryDx=0;entryDy=0;" parent="1" source="bOdLivFwJNpGWcZTf3N1-9" target="bOdLivFwJNpGWcZTf3N1-14" edge="1">
          <mxGeometry relative="1" as="geometry" />
        </mxCell>
        <mxCell id="bOdLivFwJNpGWcZTf3N1-27" style="edgeStyle=orthogonalEdgeStyle;rounded=0;orthogonalLoop=1;jettySize=auto;html=1;entryX=0;entryY=0.5;entryDx=0;entryDy=0;" parent="1" source="bOdLivFwJNpGWcZTf3N1-9" target="bOdLivFwJNpGWcZTf3N1-15" edge="1">
          <mxGeometry relative="1" as="geometry" />
        </mxCell>
        <mxCell id="bOdLivFwJNpGWcZTf3N1-9" value="ERP" style="image;aspect=fixed;html=1;points=[];align=center;fontSize=12;image=img/lib/azure2/general/File.svg;" parent="1" vertex="1">
          <mxGeometry x="117" y="280" width="56.00000000000001" height="69" as="geometry" />
        </mxCell>
        <mxCell id="PaDCbZhtnnUkw8pwLM56-1" style="edgeStyle=orthogonalEdgeStyle;rounded=0;orthogonalLoop=1;jettySize=auto;html=1;" parent="1" source="bOdLivFwJNpGWcZTf3N1-10" target="bOdLivFwJNpGWcZTf3N1-16" edge="1">
          <mxGeometry relative="1" as="geometry" />
        </mxCell>
        <mxCell id="bOdLivFwJNpGWcZTf3N1-10" value="crm_cust_info" style="rounded=1;whiteSpace=wrap;html=1;fillColor=#a0522d;fontColor=#ffffff;strokeColor=#6D1F00;" parent="1" vertex="1">
          <mxGeometry x="350" y="60" width="120" height="40" as="geometry" />
        </mxCell>
        <mxCell id="PaDCbZhtnnUkw8pwLM56-2" style="edgeStyle=orthogonalEdgeStyle;rounded=0;orthogonalLoop=1;jettySize=auto;html=1;" parent="1" source="bOdLivFwJNpGWcZTf3N1-11" target="bOdLivFwJNpGWcZTf3N1-17" edge="1">
          <mxGeometry relative="1" as="geometry" />
        </mxCell>
        <mxCell id="bOdLivFwJNpGWcZTf3N1-11" value="crm_sales_details" style="rounded=1;whiteSpace=wrap;html=1;fillColor=#a0522d;fontColor=#ffffff;strokeColor=#6D1F00;" parent="1" vertex="1">
          <mxGeometry x="355" y="139" width="120" height="40" as="geometry" />
        </mxCell>
        <mxCell id="PaDCbZhtnnUkw8pwLM56-3" style="edgeStyle=orthogonalEdgeStyle;rounded=0;orthogonalLoop=1;jettySize=auto;html=1;" parent="1" source="bOdLivFwJNpGWcZTf3N1-12" target="bOdLivFwJNpGWcZTf3N1-18" edge="1">
          <mxGeometry relative="1" as="geometry" />
        </mxCell>
        <mxCell id="bOdLivFwJNpGWcZTf3N1-12" value="crm_prd_info" style="rounded=1;whiteSpace=wrap;html=1;fillColor=#a0522d;fontColor=#ffffff;strokeColor=#6D1F00;" parent="1" vertex="1">
          <mxGeometry x="360" y="210" width="120" height="40" as="geometry" />
        </mxCell>
        <mxCell id="PaDCbZhtnnUkw8pwLM56-4" style="edgeStyle=orthogonalEdgeStyle;rounded=0;orthogonalLoop=1;jettySize=auto;html=1;" parent="1" source="bOdLivFwJNpGWcZTf3N1-13" target="bOdLivFwJNpGWcZTf3N1-19" edge="1">
          <mxGeometry relative="1" as="geometry" />
        </mxCell>
        <mxCell id="bOdLivFwJNpGWcZTf3N1-13" value="erp_cust_az12" style="rounded=1;whiteSpace=wrap;html=1;fillColor=#a0522d;fontColor=#ffffff;strokeColor=#6D1F00;" parent="1" vertex="1">
          <mxGeometry x="355" y="280" width="120" height="40" as="geometry" />
        </mxCell>
        <mxCell id="PaDCbZhtnnUkw8pwLM56-5" style="edgeStyle=orthogonalEdgeStyle;rounded=0;orthogonalLoop=1;jettySize=auto;html=1;" parent="1" source="bOdLivFwJNpGWcZTf3N1-14" target="bOdLivFwJNpGWcZTf3N1-20" edge="1">
          <mxGeometry relative="1" as="geometry" />
        </mxCell>
        <mxCell id="bOdLivFwJNpGWcZTf3N1-14" value="erp_loc_a101" style="rounded=1;whiteSpace=wrap;html=1;fillColor=#a0522d;fontColor=#ffffff;strokeColor=#6D1F00;" parent="1" vertex="1">
          <mxGeometry x="355" y="350" width="120" height="40" as="geometry" />
        </mxCell>
        <mxCell id="PaDCbZhtnnUkw8pwLM56-6" style="edgeStyle=orthogonalEdgeStyle;rounded=0;orthogonalLoop=1;jettySize=auto;html=1;" parent="1" source="bOdLivFwJNpGWcZTf3N1-15" target="bOdLivFwJNpGWcZTf3N1-21" edge="1">
          <mxGeometry relative="1" as="geometry" />
        </mxCell>
        <mxCell id="bOdLivFwJNpGWcZTf3N1-15" value="erp_px_cat_g1v2" style="rounded=1;whiteSpace=wrap;html=1;fillColor=#a0522d;fontColor=#ffffff;strokeColor=#6D1F00;" parent="1" vertex="1">
          <mxGeometry x="355" y="410" width="120" height="40" as="geometry" />
        </mxCell>
        <mxCell id="DMD-K5-9CZ7UmBtLLQai-11" style="edgeStyle=orthogonalEdgeStyle;rounded=0;orthogonalLoop=1;jettySize=auto;html=1;entryX=0;entryY=0.5;entryDx=0;entryDy=0;jumpStyle=gap;" edge="1" parent="1" source="bOdLivFwJNpGWcZTf3N1-16" target="DMD-K5-9CZ7UmBtLLQai-4">
          <mxGeometry relative="1" as="geometry">
            <Array as="points">
              <mxPoint x="780" y="80" />
              <mxPoint x="780" y="230" />
            </Array>
          </mxGeometry>
        </mxCell>
        <mxCell id="bOdLivFwJNpGWcZTf3N1-16" value="crm_cust_info" style="rounded=1;whiteSpace=wrap;html=1;fillColor=#647687;fontColor=#ffffff;strokeColor=#314354;" parent="1" vertex="1">
          <mxGeometry x="610" y="60" width="110" height="40" as="geometry" />
        </mxCell>
        <mxCell id="DMD-K5-9CZ7UmBtLLQai-9" style="edgeStyle=orthogonalEdgeStyle;rounded=0;orthogonalLoop=1;jettySize=auto;html=1;jumpStyle=gap;" edge="1" parent="1" source="bOdLivFwJNpGWcZTf3N1-17" target="DMD-K5-9CZ7UmBtLLQai-3">
          <mxGeometry relative="1" as="geometry" />
        </mxCell>
        <mxCell id="bOdLivFwJNpGWcZTf3N1-17" value="crm_sales_details" style="rounded=1;whiteSpace=wrap;html=1;fillColor=#647687;fontColor=#ffffff;strokeColor=#314354;" parent="1" vertex="1">
          <mxGeometry x="600" y="124.5" width="120" height="40" as="geometry" />
        </mxCell>
        <mxCell id="DMD-K5-9CZ7UmBtLLQai-12" style="edgeStyle=orthogonalEdgeStyle;rounded=0;orthogonalLoop=1;jettySize=auto;html=1;entryX=0;entryY=0.5;entryDx=0;entryDy=0;jumpStyle=gap;" edge="1" parent="1" source="bOdLivFwJNpGWcZTf3N1-18" target="DMD-K5-9CZ7UmBtLLQai-5">
          <mxGeometry relative="1" as="geometry">
            <Array as="points">
              <mxPoint x="790" y="220" />
              <mxPoint x="790" y="320" />
            </Array>
          </mxGeometry>
        </mxCell>
        <mxCell id="bOdLivFwJNpGWcZTf3N1-18" value="crm_prd_info" style="rounded=1;whiteSpace=wrap;html=1;fillColor=#647687;fontColor=#ffffff;strokeColor=#314354;" parent="1" vertex="1">
          <mxGeometry x="600" y="200" width="120" height="40" as="geometry" />
        </mxCell>
        <mxCell id="DMD-K5-9CZ7UmBtLLQai-13" style="edgeStyle=orthogonalEdgeStyle;rounded=0;orthogonalLoop=1;jettySize=auto;html=1;entryX=0;entryY=0.75;entryDx=0;entryDy=0;jumpStyle=gap;" edge="1" parent="1" source="bOdLivFwJNpGWcZTf3N1-19" target="DMD-K5-9CZ7UmBtLLQai-4">
          <mxGeometry relative="1" as="geometry" />
        </mxCell>
        <mxCell id="bOdLivFwJNpGWcZTf3N1-19" value="erp_cust_az12" style="rounded=1;whiteSpace=wrap;html=1;fillColor=#647687;fontColor=#ffffff;strokeColor=#314354;" parent="1" vertex="1">
          <mxGeometry x="605" y="269" width="120" height="40" as="geometry" />
        </mxCell>
        <mxCell id="DMD-K5-9CZ7UmBtLLQai-14" style="edgeStyle=orthogonalEdgeStyle;rounded=0;orthogonalLoop=1;jettySize=auto;html=1;entryX=0;entryY=0.25;entryDx=0;entryDy=0;jumpStyle=gap;" edge="1" parent="1" source="bOdLivFwJNpGWcZTf3N1-20" target="DMD-K5-9CZ7UmBtLLQai-4">
          <mxGeometry relative="1" as="geometry">
            <Array as="points">
              <mxPoint x="750" y="360" />
              <mxPoint x="750" y="220" />
            </Array>
          </mxGeometry>
        </mxCell>
        <mxCell id="bOdLivFwJNpGWcZTf3N1-20" value="erp_loc_a101" style="rounded=1;whiteSpace=wrap;html=1;fillColor=#647687;fontColor=#ffffff;strokeColor=#314354;" parent="1" vertex="1">
          <mxGeometry x="600" y="340" width="120" height="40" as="geometry" />
        </mxCell>
        <mxCell id="DMD-K5-9CZ7UmBtLLQai-15" style="edgeStyle=orthogonalEdgeStyle;rounded=0;orthogonalLoop=1;jettySize=auto;html=1;entryX=0;entryY=0.75;entryDx=0;entryDy=0;jumpStyle=gap;" edge="1" parent="1" source="bOdLivFwJNpGWcZTf3N1-21" target="DMD-K5-9CZ7UmBtLLQai-5">
          <mxGeometry relative="1" as="geometry">
            <Array as="points">
              <mxPoint x="790" y="430" />
              <mxPoint x="790" y="330" />
            </Array>
          </mxGeometry>
        </mxCell>
        <mxCell id="bOdLivFwJNpGWcZTf3N1-21" value="erp_px_cat_g1v2" style="rounded=1;whiteSpace=wrap;html=1;fillColor=#647687;fontColor=#ffffff;strokeColor=#314354;" parent="1" vertex="1">
          <mxGeometry x="600" y="410" width="120" height="40" as="geometry" />
        </mxCell>
        <mxCell id="DMD-K5-9CZ7UmBtLLQai-1" value="" style="rounded=0;whiteSpace=wrap;html=1;fillColor=none;strokeColor=#d6b656;" vertex="1" parent="1">
          <mxGeometry x="795" y="50" width="190" height="334.5" as="geometry" />
        </mxCell>
        <mxCell id="DMD-K5-9CZ7UmBtLLQai-2" value="GOLD LAYER" style="text;html=1;whiteSpace=wrap;strokeColor=#d6b656;fillColor=#fff2cc;align=center;verticalAlign=middle;rounded=0;" vertex="1" parent="1">
          <mxGeometry x="830" y="20" width="100" height="30" as="geometry" />
        </mxCell>
        <mxCell id="DMD-K5-9CZ7UmBtLLQai-3" value="fact_sales" style="rounded=1;whiteSpace=wrap;html=1;fillColor=#fff2cc;strokeColor=#d6b656;" vertex="1" parent="1">
          <mxGeometry x="830" y="130" width="120" height="40" as="geometry" />
        </mxCell>
        <mxCell id="DMD-K5-9CZ7UmBtLLQai-4" value="dim_customers" style="rounded=1;whiteSpace=wrap;html=1;fillColor=#fff2cc;strokeColor=#d6b656;" vertex="1" parent="1">
          <mxGeometry x="830" y="210" width="120" height="40" as="geometry" />
        </mxCell>
        <mxCell id="DMD-K5-9CZ7UmBtLLQai-5" value="dim_products" style="rounded=1;whiteSpace=wrap;html=1;fillColor=#fff2cc;strokeColor=#d6b656;" vertex="1" parent="1">
          <mxGeometry x="830" y="300" width="120" height="40" as="geometry" />
        </mxCell>
      </root>
    </mxGraphModel>
  </diagram>
</mxfile>
